<?xml version="1.0" encoding="UTF-8"?>
<svg id="Layer_2" data-name="Layer 2" xmlns="http://www.w3.org/2000/svg" viewBox="0 0 192 192">
  <defs>
    <style>
      .cls-1 {
        fill: #007aff;
      }

      .cls-2 {
        fill: none;
        stroke: #000;
        stroke-linecap: round;
        stroke-linejoin: round;
        stroke-width: 9px;
      }

      .cls-3 {
        fill: #fff;
        opacity: 0;
      }
    </style>
  </defs>
  <g id="Layer_1-2" data-name="Layer 1">
    <g>
      <circle class="cls-3" cx="96" cy="96" r="96"/>
      <g>
        <path class="cls-1" d="M84,90c0,6.63-5.37,12-12,12s-12-5.37-12-12,5.37-18,12-18,12,11.37,12,18Z"/>
        <path class="cls-1" d="M132,90c0,6.63-5.37,12-12,12s-12-5.37-12-12,5.37-18,12-18,12,11.37,12,18Z"/>
        <path class="cls-2" d="M36,114h0c36.93,22.16,83.07,22.16,120,0h0"/>
        <path class="cls-2" d="M139.46,58.54c-6.51-6.51-15.51-10.54-25.46-10.54"/>
        <path class="cls-2" d="M52.54,58.54c6.51-6.51,15.51-10.54,25.46-10.54"/>
      </g>
    </g>
  </g>
</svg>